<?xml version="1.0" encoding="utf-8"?>
<!-- Generator: Adobe Illustrator 25.0.1, SVG Export Plug-In . SVG Version: 6.00 Build 0)  -->
<svg version="1.1" id="图层_1" xmlns="http://www.w3.org/2000/svg" xmlns:xlink="http://www.w3.org/1999/xlink" x="0px" y="0px"
	 viewBox="0 0 200 200" style="enable-background:new 0 0 200 200;" xml:space="preserve">
<style type="text/css">
	.st0{fill:#8C7BFD;}
</style>
<path class="st0" d="M34.3,169.2c37.2,37.5,97.8,37.8,135.4,0.5c0.2-0.2,0.4-0.4,0.5-0.5c6.4-6.4,11.9-13.7,16.2-21.7
	c0.9-1.7,1.2-3.8,0.6-5.7c-1.1-3.9-5.1-6.2-9-5.1c-1.9,0.5-3.5,1.8-4.5,3.6c-3.7,6.7-8.3,12.9-13.7,18.4
	c-31.5,31.8-82.8,32-114.6,0.5c-0.2-0.2-0.3-0.3-0.5-0.5c-15.3-15.4-23.9-36.3-23.8-58c-0.1-21.7,8.5-42.6,23.8-58
	c31.5-31.8,82.8-32,114.6-0.5c0.2,0.2,0.3,0.3,0.5,0.5c4.2,4.3,8,9,11.2,14.1c0.6,0.9,1.4,1.7,2.3,2.3l-11.7,10l32.1,6.1V41.7
	L184,50c-0.2-0.4-0.3-0.7-0.5-1c-3.8-6-8.2-11.6-13.2-16.7C133-5.2,72.4-5.5,34.9,31.8c-0.2,0.2-0.4,0.4-0.6,0.6
	C16.3,50.5,6.2,75.1,6.2,100.8C6.2,126.4,16.3,151,34.3,169.2 M90.9,42.2c1.4-1.6,3.4-2.6,5.5-2.6c0,0,0.1,0,0.1,0
	c4-0.1,7.4,3.2,7.4,7.2l1.1,61.6l36.8,31.1c3,2.6,3.4,7.2,0.8,10.3c-1.3,1.5-3.1,2.5-5.1,2.7c-1.9,0.2-3.9-0.4-5.4-1.6l-39.3-33.2
	c-1.6-1.4-2.5-3.4-2.6-5.5l-1.1-64.9C89.1,45.3,89.7,43.5,90.9,42.2"/>
</svg>
